<svg width="291" height="203" viewBox="0 0 291 203" fill="none" xmlns="http://www.w3.org/2000/svg">
<path d="M225.462 34.2929C224.568 35.108 223.673 35.923 214.935 42.9987C206.197 50.0744 189.644 63.3862 181.414 69.9721C173.185 76.558 173.782 76.0146 177.146 73.3576C186.585 65.9038 193.223 60.6407 193.675 59.7516C193.906 59.2965 193.828 58.7266 193.605 58.3109C193.381 57.8952 192.934 57.6235 192.256 57.4835C191.578 57.3436 190.683 57.3436 186.196 59.6528C181.708 61.962 173.655 66.5803 168.835 69.2311C162.766 72.5692 160.545 73.3926 159.415 73.8063C159.059 73.9368 159.031 73.405 159.255 72.9234C162.008 66.9968 166.262 57.2201 167.536 54.8821C168.897 52.3865 172.128 51.0376 174.46 49.5311C181.117 45.23 185.54 40.3355 185.47 39.5123C185.359 38.1998 177.465 42.4924 168.433 47.7035C164.957 49.7093 163.577 50.1979 163.11 50.274C161.277 50.5724 169.1 47.6129 172.503 46.5757C175.041 45.8021 176.651 45.135 177.031 44.7234C177.139 44.6062 176.367 44.5834 175.836 44.6513C175.305 44.7193 174.857 44.8551 166.574 51.0376C158.29 57.2201 142.184 69.4452 133.439 76.2184C123.659 83.7939 121.834 85.6012 120.327 86.2907C117.992 87.3588 123.321 81.2257 127.524 75.5536C131.77 69.8235 138.514 64.7774 143.108 60.8691C144.771 59.4545 144.868 58.9983 144.572 58.7205C143.781 57.9777 142.166 58.1668 140.964 58.2348C139.743 58.3037 137.059 59.3935 129.646 63.0733C124.215 65.7692 115.819 70.8282 110.769 73.5511C105.719 76.2739 104.377 76.6814 103.835 76.416C102.639 75.8306 104.494 73.405 108.008 69.3855C110.855 66.129 116.145 60.6119 119.356 57.3354C125.33 51.2388 128.599 49.9386 128.604 49.457C128.614 48.3566 125.897 50.4778 122.756 52.6594C111.104 60.7528 109.325 61.184 108.946 61.254C108.849 61.2719 109.61 60.9165 112.975 58.1957C116.339 55.4749 122.453 50.3132 126.125 47.0428C133.226 40.7182 135.83 38.8249 135.984 38.2754C136.167 37.6212 134.031 38.6808 131.189 40.3828C128.899 41.7541 125.066 44.3941 115.462 52.3116C105.859 60.229 90.6479 73.405 81.3204 81.9584C71.993 90.5118 69.0103 94.0435 67.7721 95.5912C66.5339 97.1389 67.1304 96.5956 67.7359 96.1798C68.3415 95.7641 68.938 95.4924 76.4036 86.9987C83.8692 78.5049 98.1858 61.7973 105.337 53.1224C112.489 44.4476 112.041 44.3117 111.14 44.5814C108.79 45.2842 107.066 46.3657 95.2777 54.5858C83.843 62.5593 61.7165 78.6984 48.48 88.8571C35.2435 99.0159 31.6643 102.819 32.7286 101.247C33.7928 99.6745 39.6089 92.6111 49.0923 82.9957C58.5757 73.3803 71.5501 61.4269 78.2339 55.0653C84.9176 48.7037 84.9176 48.2962 84.3211 48.1542C80.3252 47.2029 75.6037 51.972 74.5214 52.6141C66.3025 57.4902 87.7737 40.883 88.3047 40.1976C88.4846 39.9654 87.4935 39.7839 86.5129 40.0536C84.2053 40.688 82.5135 42.2454 78.5525 46.5324C75.1323 50.234 69.0736 57.2036 63.6122 64.372C58.1509 71.5403 53.5278 78.7395 51.1462 82.7878C48.7647 86.8361 48.7647 87.5153 46.2294 94.5889C43.6942 101.663 38.6238 115.11 36.0117 122.241C33.3997 129.373 33.3997 129.78 33.9216 129.786C35.5482 129.806 42.0809 124.347 51.1869 116.942C58.5858 110.925 62.6158 109.212 63.9693 108.594C64.5505 108.329 87.7489 90.3081 78.9569 101.922C70.165 113.536 52.1201 136.763 42.6006 149.476M31 172C43.7123 163.698 66.6785 148.213 78.9569 140.032C93.2511 130.508 95.7545 130.208 97.6412 129.377C97.8879 129.268 97.7248 130.052 92.6521 135.018C87.5794 139.984 77.5876 149.357 72.2912 154.389C66.9948 159.421 66.6965 159.828 73.0301 153.586C79.3636 147.344 92.338 134.44 102.154 125.415C111.969 116.39 118.233 111.636 122.13 108.915C126.028 106.195 127.37 105.651 128.136 105.643C128.902 105.635 129.051 106.178 128.83 106.865C128.312 108.475 126.95 109.615 124.333 114.579C121.973 119.056 118.287 127.829 115.171 134.141C112.055 140.454 109.818 144.121 109.113 145.875C108.408 147.628 109.303 147.356 116.251 142.191C123.199 137.025 136.174 126.973 143.528 121.455C152.052 115.061 155.696 113.744 158.934 112.712C160.043 112.359 160.233 112.904 158.297 117.596C156.36 122.289 152.334 131.254 150.26 136.416C148.185 141.577 148.185 142.664 148.409 143.36C148.633 144.055 149.08 144.327 149.683 144.467C152.458 145.11 157.49 142.293 164.626 138.054C177.766 130.246 179.363 127.595 179.966 127.66C180.235 127.69 179.973 128.405 177.659 132.625C175.345 136.844 170.871 144.722 168.268 149.188C165.163 154.516 164.156 155.716 164.077 156.266C163.951 157.137 167.152 155.589 177.91 149.74C187.417 144.571 204.774 134.382 214.061 129.204C223.347 124.026 223.944 124.026 222.462 126.743C217.887 135.128 214.16 140.355 215.733 139.266C216.956 138.419 218.647 136.547 222.03 133.532C230.238 126.216 235.554 122.375 235.63 123.536C235.926 127.999 231.952 132.513 229.469 138.33C226.105 146.207 224.251 151.329 225.379 151.466C226.359 151.586 232.485 147.389 241.295 141.491C244.433 139.39 244.886 139.124 245.191 138.712C245.496 138.301 245.645 137.757 245.423 137.681C243.106 136.884 237.709 142.931 228.47 148.136C219.378 153.258 212.669 154.074 211.087 153.734C206.914 152.838 214.752 142.985 218.801 137.515C221.145 134.348 224.938 130.957 228.87 126.286C232.801 121.614 236.977 115.909 237.935 113.649C238.561 112.173 228.233 116.049 218.376 118.93C214.396 120.094 212.248 119.91 211.098 119.638C209.948 119.366 209.799 118.823 209.797 118.203C209.792 116.898 210.545 115.798 211.894 114.297C214.338 111.578 217.161 108.125 225.537 101.922C232.125 97.0429 244.054 89.3346 249.676 85.276C255.298 81.2175 254.403 81.2175 252.972 81.625C245.766 83.678 242.49 86.2927 241.363 86.4986C240.837 86.5946 240.384 86.5685 240.229 86.2289C238.227 81.8702 246.241 75.1914 248.725 70.1264C249.483 68.5792 250.598 67.1154 250.912 66.2099C251.226 65.3043 250.778 65.0326 249.951 64.8927C246.159 64.2508 244.298 64.0694 243.543 63.3862C239.212 59.4651 252.423 51.5851 252.652 50.9676C252.832 50.4786 251.226 50.486 250.399 49.5311C249.878 48.9298 249.721 47.7611 250.089 46.3184C251.991 38.8707 257.846 35.9435 258 35.0544C257.259 34.0295 256.048 33.198 254.995 32.5148C254.538 32.1031 254.24 31.5598 253.029 31" stroke="#FCC094" stroke-width="61" stroke-linecap="round"/>
</svg>
