<svg width="23" height="38" viewBox="0 0 23 38" fill="none" xmlns="http://www.w3.org/2000/svg">
<path d="M8.56985 35.1369C4.97725 32.912 2.23733 29.3634 0.84646 25.1339C0.1315 22.8985 -0.135235 20.5231 0.0641327 18.1667C0.2635 15.8103 0.924349 13.5274 2.00242 11.4709C3.12343 9.39512 4.42635 7.44168 5.89302 5.63776C7.3091 3.86075 8.95998 2.20142 10.9215 1.17759C14.5882 -0.736721 19.418 -0.54451 21.813 3.45671C22.7631 5.02581 23.1785 7.11272 22.6258 8.94857C21.9684 11.1296 20.1911 12.4124 18.7461 13.9305C18.0669 14.6444 13.3671 17.1036 13.6742 18.1667C15.372 21.9639 25.9132 33.7679 22.2212 36.5766C20.6576 37.6812 18.7909 38.1661 16.9362 37.9495C16.6581 37.926 16.3836 37.8829 16.109 37.8358C13.4466 37.6593 10.7373 36.5256 8.56985 35.1369Z" fill="#C91833"/>
<path d="M8.56991 35.1369C4.97731 32.912 2.23738 29.3634 0.846512 25.1339C0.131552 22.8985 -0.135181 20.5231 0.0641861 18.1667C0.263554 15.8103 0.924402 13.5274 2.00248 11.4709C3.12349 9.39512 4.4264 7.44168 5.89308 5.63776C7.30915 3.86075 8.96003 2.20143 10.9216 1.17759C14.5882 -0.736721 19.418 -0.54451 21.8131 3.45671C22.7632 5.02581 9.12264 16.3308 8.56993 18.1667C10.2678 21.9639 25.9132 33.7679 22.2213 36.5766C20.6577 37.6812 18.791 38.1661 16.9363 37.9495C16.6581 37.926 16.3836 37.8829 16.1091 37.8358C13.4467 37.6593 10.7374 36.5256 8.56991 35.1369Z" fill="black"/>
</svg>
