<svg width="23" height="38" viewBox="0 0 23 38" fill="none" xmlns="http://www.w3.org/2000/svg">
<path d="M14.4301 2.86308C18.0227 5.08799 20.7627 8.63664 22.1535 12.8661C22.8685 15.1015 23.1352 17.4769 22.9359 19.8333C22.7365 22.1897 22.0757 24.4726 20.9976 26.5291C19.8766 28.6049 18.5737 30.5583 17.107 32.3622C15.6909 34.1392 14.04 35.7986 12.0785 36.8224C8.41185 38.7367 3.58201 38.5445 1.18696 34.5433C0.236891 32.9742 -0.178539 30.8873 0.374164 29.0514C1.03163 26.8704 2.80894 25.5876 4.25392 24.0695C4.93306 23.3556 9.63286 20.8964 9.3258 19.8333C7.62796 16.0361 -2.91316 4.23212 0.778755 1.42343C2.34236 0.318807 4.20907 -0.166136 6.06375 0.0504598C6.34191 0.0739963 6.61645 0.117144 6.89099 0.164217C9.55336 0.340741 12.2627 1.47442 14.4301 2.86308Z" fill="#C91833"/>
<path d="M14.4301 2.86308C18.0227 5.08799 20.7626 8.63664 22.1535 12.8661C22.8684 15.1015 23.1352 17.4769 22.9358 19.8333C22.7364 22.1897 22.0756 24.4726 20.9975 26.5291C19.8765 28.6049 18.5736 30.5583 17.1069 32.3622C15.6908 34.1393 14.04 35.7986 12.0784 36.8224C8.41179 38.7367 3.58195 38.5445 1.18691 34.5433C0.236834 32.9742 13.8774 21.6692 14.4301 19.8333C12.7322 16.0361 -2.91321 4.23212 0.778698 1.42343C2.34231 0.318807 4.20901 -0.166136 6.0637 0.0504598C6.34185 0.0739963 6.61639 0.117144 6.89094 0.164217C9.5533 0.340741 12.2626 1.47442 14.4301 2.86308Z" fill="black"/>
</svg>
